<svg xmlns="http://www.w3.org/2000/svg" width="400" height="336.52007648183553" viewBox="0, 0, 400,336.52007648183553">
    <path d="M155.746 9.528 C 145.796 13.093,145.352 14.945,145.332 52.964 L 145.315 84.895 160.612 84.895 L 175.908 84.895 175.908 61.950 L 175.908 39.006 267.686 39.006 L 359.465 39.006 359.465 100.191 L 359.465 161.377 313.576 161.377 L 267.686 161.377 267.686 199.618 L 267.686 237.859 298.354 237.859 L 329.022 237.859 328.756 227.607 C 328.327 211.097,324.364 207.266,307.719 207.266 L 298.279 207.266 298.279 199.637 L 298.279 192.008 339.072 191.798 L 379.864 191.587 382.858 189.496 C 384.504 188.346,386.711 186.134,387.763 184.581 L 389.675 181.757 389.880 101.431 L 390.085 21.105 388.102 17.052 C 386.606 13.993,385.243 12.484,382.544 10.898 L 378.967 8.795 268.834 8.632 C 176.668 8.496,158.218 8.642,155.746 9.528 M17.874 101.018 C 14.606 101.972,9.378 107.379,8.433 110.782 C 7.260 115.003,7.367 269.703,8.545 273.117 C 9.970 277.251,12.246 279.791,16.359 281.841 L 20.186 283.748 59.806 283.748 L 99.426 283.748 99.426 291.396 L 99.426 299.044 89.986 299.044 C 73.280 299.044,69.380 302.813,68.950 319.376 L 68.684 329.637 129.944 329.637 L 191.205 329.637 191.205 320.197 C 191.205 303.482,187.431 299.580,170.874 299.176 L 160.612 298.925 160.612 291.337 L 160.612 283.748 200.025 283.748 C 243.012 283.748,242.544 283.792,247.324 279.309 C 252.682 274.285,252.355 279.958,252.373 191.928 L 252.390 112.729 250.453 108.841 C 249.242 106.412,247.330 104.132,245.356 102.763 L 242.196 100.574 131.232 100.446 C 66.052 100.371,19.280 100.607,17.874 101.018 M221.797 191.969 L 221.797 253.155 130.019 253.155 L 38.241 253.155 38.241 191.969 L 38.241 130.784 130.019 130.784 L 221.797 130.784 221.797 191.969 " fill-rule="evenodd" />
</svg>
