<svg xmlns="http://www.w3.org/2000/svg" width="980" height="950" viewBox="0 0 980 950" fill="#000000">
<g transform="translate(0.000000,950.000000) scale(0.100000,-0.100000)">
<path d="M4720 9469 c-41 -10 -120 -41 -175 -68 l-101 -49 -1459 -1522 c-803
-837 -1473 -1540 -1488 -1563 -42 -62 -60 -136 -55 -231 5 -140 24 -166 364
-519 345 -358 350 -362 504 -362 112 0 161 18 236 87 26 23 408 418 848 877
l801 834 5 -1879 5 -1879 27 -57 c37 -80 105 -149 181 -184 l62 -29 425 0 425
0 62 29 c76 35 144 104 181 184 l27 57 5 1879 5 1879 801 -834 c440 -459 822
-854 848 -877 75 -69 124 -87 236 -87 154 0 159 4 504 362 315 327 350 373
365 486 4 31 4 83 0 114 -18 130 46 59 -1539 1710 -1375 1432 -1468 1527
-1530 1557 -210 105 -392 132 -570 85z"/>
<path d="M260 3641 c-79 -25 -147 -76 -194 -144 -70 -104 -67 -48 -63 -1198 3
-1031 3 -1034 26 -1134 70 -312 214 -571 430 -777 246 -235 523 -354 876 -379
100 -6 1328 -9 3675 -7 3385 3 3529 4 3620 22 293 57 526 181 735 390 211 212
338 446 406 751 23 100 23 104 26 1134 4 1014 3 1036 -16 1100 -28 91 -89 167
-172 211 l-64 35 -445 0 -445 0 -45 -24 c-68 -36 -99 -62 -136 -112 -71 -97
-68 -62 -74 -794 -6 -656 -6 -660 -29 -730 -44 -133 -98 -223 -191 -316 -68
-69 -102 -94 -170 -127 -173 -85 146 -77 -3110 -77 -3250 0 -2938 -8 -3106 75
-139 68 -277 216 -334 360 -55 137 -53 108 -60 815 -6 742 -2 702 -84 805 -29
38 -63 66 -107 90 l-64 35 -430 2 c-237 1 -441 -2 -455 -6z"/>
</g>
</svg>
