<svg id="svg" xmlns="http://www.w3.org/2000/svg" xmlns:xlink="http://www.w3.org/1999/xlink" width="400" height="400" viewBox="0, 0, 400,400"><g id="svgg"><path id="path0" d="M47.836 50.084 L 35.780 62.668 68.722 95.805 L 101.664 128.942 91.772 139.471 C 82.827 148.992,78.760 150.000,49.274 150.000 L 16.667 150.000 16.667 200.000 L 16.667 250.000 48.898 250.000 L 81.130 250.000 132.231 300.979 L 183.333 351.958 183.333 281.230 L 183.333 210.501 260.398 287.481 L 337.462 364.461 350.972 350.951 L 364.482 337.442 214.554 187.471 C 132.094 104.987,63.562 37.500,62.260 37.500 C 60.958 37.500,54.467 43.163,47.836 50.084 M165.419 65.811 L 149.980 81.622 166.656 97.907 L 183.333 114.191 183.333 82.096 C 183.333 64.443,182.776 50.000,182.096 50.000 C 181.415 50.000,173.910 57.115,165.419 65.811 M310.797 70.436 L 299.075 82.671 311.848 98.627 C 342.102 136.423,354.276 198.338,340.616 244.936 L 334.417 266.082 347.615 278.875 C 365.213 295.930,365.114 295.990,375.345 262.304 C 393.624 202.124,381.864 127.387,346.905 81.564 C 327.415 56.017,325.250 55.350,310.797 70.436 M264.438 116.818 C 254.195 127.510,253.120 130.576,257.498 136.610 C 269.600 153.291,278.990 178.241,279.075 193.946 C 279.184 213.959,308.778 249.042,314.023 235.374 C 324.213 208.819,313.380 149.224,293.013 119.792 C 279.970 100.944,279.676 100.914,264.438 116.818 " stroke="none" fill="#000000" fill-rule="evenodd"></path></g></svg>