<svg xmlns="http://www.w3.org/2000/svg" width="400" height="400" viewBox="0, 0, 400,400" fill="#000000">
    <path id="path0" d="M131.250 100.000 L 81.380 150.000 49.023 150.000 L 16.667 150.000 16.667 200.000 L 16.667 250.000 48.898 250.000 L 81.130 250.000 132.231 300.979 L 183.333 351.958 183.333 200.979 C 183.333 117.941,182.835 50.000,182.227 50.000 C 181.618 50.000,158.678 72.500,131.250 100.000 M310.929 70.298 L 299.339 82.396 313.807 101.350 C 356.784 157.652,355.976 245.107,311.967 300.672 L 298.759 317.349 311.714 330.304 C 324.378 342.968,324.858 343.087,333.120 335.610 C 393.657 280.824,400.454 152.235,346.566 81.227 C 327.480 56.076,325.219 55.383,310.929 70.298 M264.438 116.818 C 254.291 127.410,253.139 130.632,257.365 136.610 C 286.325 177.574,286.662 230.263,258.156 260.605 C 250.078 269.204,250.105 269.301,264.737 283.482 L 279.430 297.723 289.606 285.320 C 324.332 242.994,325.890 167.302,293.013 119.792 C 279.970 100.944,279.676 100.914,264.438 116.818 M218.151 163.542 C 206.992 175.486,206.014 178.452,209.857 188.691 C 212.922 196.858,212.870 203.859,209.681 212.308 C 205.564 223.215,206.417 225.546,218.967 237.710 L 232.785 251.103 241.377 237.010 C 255.348 214.093,248.536 150.000,232.129 150.000 C 231.399 150.000,225.109 156.094,218.151 163.542 " fill-rule="evenodd" />
</svg>
